<svg xmlns="http://www.w3.org/2000/svg" width="208" height="100"><defs><filter id="a" width="579.1%" height="233.3%" x="-239.6%" y="-66.7%" filterUnits="objectBoundingBox"><feGaussianBlur in="SourceGraphic" stdDeviation="3.39"/></filter><filter id="b" width="499.3%" height="204.3%" x="-199.6%" y="-52.2%" filterUnits="objectBoundingBox"><feGaussianBlur in="SourceGraphic" stdDeviation="3.39"/></filter></defs><g fill="none" fill-rule="evenodd"><path fill="#79CECF" d="M43.714 65.56V39.694L21.607 65.559h22.107zm0 14.83H.09V67.458L45.735 14.66h15.451v50.898h11.173v14.83H61.186v17.916H43.714V80.39z"/><path fill="#242120" fill-opacity=".6" d="M14.433 0l-.85 15.254 4.246-.847L16.979 0z" filter="url(#a)" transform="translate(58.58 65.254)"/><path fill="#72BD6D" d="M143.563 96.025c0 .93-.36 1.862-1.079 2.573a3.69 3.69 0 0 1-2.601 1.067H75.059a3.688 3.688 0 0 1-2.602-1.067 3.612 3.612 0 0 1-1.077-2.573L73.545 20h67.853l2.165 76.025z"/><path fill="#3F4A5A" d="M127.096 32.895c1.843 0 3.334-1.475 3.334-3.286 0-1.825-1.491-3.293-3.334-3.293-1.82 0-3.3 1.468-3.3 3.293a3.298 3.298 0 0 0 3.3 3.286zM85.313 29.61c0 1.81 1.487 3.285 3.317 3.285 1.826 0 3.318-1.475 3.318-3.286 0-1.825-1.492-3.293-3.318-3.293-1.83 0-3.317 1.468-3.317 3.293"/><path fill="#79CECF" fill-rule="nonzero" d="M122.666 6.21c3.942 3.895 6.112 9.076 6.112 14.589v8.453c0 .802-.656 1.45-1.467 1.45-.804 0-1.467-.65-1.467-1.45V20.8c0-4.738-1.863-9.185-5.254-12.535-3.389-3.348-7.893-5.192-12.684-5.192-4.792 0-9.294 1.843-12.687 5.192-3.389 3.351-5.252 7.798-5.252 12.535v8.453c0 .802-.66 1.45-1.468 1.45a1.46 1.46 0 0 1-1.467-1.45V20.8c0-5.511 2.171-10.693 6.113-14.59 3.943-3.894 9.186-6.04 14.76-6.04s10.822 2.147 14.761 6.04z"/><path fill="#242120" fill-opacity=".2" d="M138.384 63.56l-4.245 5.932 1.698 13.559h3.396z" filter="url(#b)" style="mix-blend-mode:multiply"/><path fill="#79CECF" d="M178.702 65.56V39.694l-22.108 25.864h22.108zm0 14.83H135.08V67.458l45.642-52.797h15.452v50.898h11.172v14.83h-11.172v17.916h-17.472V80.39z"/></g></svg>